<?xml version="1.0" encoding="utf-8"?>
<!-- Generator: Adobe Illustrator 27.5.0, SVG Export Plug-In . SVG Version: 6.00 Build 0)  -->
<svg version="1.1" xmlns="http://www.w3.org/2000/svg" xmlns:xlink="http://www.w3.org/1999/xlink" x="0px" y="0px"
	 viewBox="0 0 500 500" style="enable-background:new 0 0 500 500;" xml:space="preserve">
<g id="BACKGROUND">
	<rect style="fill:#FAFAFA;" width="500" height="500"/>
</g>
<g id="OBJECTS">
	<g>
		<path style="fill:#C8C8C8;" d="M165.089,44.488H51.446c-3.843,0-6.958,3.115-6.958,6.958v113.643c0,3.843,3.115,6.958,6.958,6.958
			h113.643c3.843,0,6.958-3.115,6.958-6.958V51.446C172.047,47.603,168.932,44.488,165.089,44.488z"/>
		<g>
			<defs>
				<path id="SVGID_1_" d="M165.089,44.488H51.446c-3.843,0-6.958,3.115-6.958,6.958v113.643c0,3.843,3.115,6.958,6.958,6.958
					h113.643c3.843,0,6.958-3.115,6.958-6.958V51.446C172.047,47.603,168.932,44.488,165.089,44.488z"/>
			</defs>
			<clipPath id="SVGID_00000104691795569426842570000018350209381523266694_">
				<use xlink:href="#SVGID_1_"  style="overflow:visible;"/>
			</clipPath>
			<g style="clip-path:url(#SVGID_00000104691795569426842570000018350209381523266694_);">
				<path style="fill:#A04773;" d="M108.267,174.014h24.185c7.805-5.711,9.298-19.745,9.298-19.745
					c0.679,12.696-5.384,19.745-5.384,19.745c16.56-10.123,10.587-37.485,8.161-56.161c-2.394-18.424-2.188-28.809-4.451-37.858
					c-3.596-14.384-12.94-21.713-22.17-21.713c-6.968,0-9.638,2.579-9.638,2.579s-2.67-2.579-9.637-2.579
					c-9.23,0-18.574,7.328-22.17,21.713c-2.262,9.049-2.057,19.434-4.451,37.858c-2.427,18.675-8.399,46.038,8.161,56.161
					c0,0-6.063-7.049-5.384-19.745c0,0,1.493,14.034,9.298,19.745H108.267z"/>
				<path style="opacity:0.3;fill:#FAFAFA;" d="M98.63,59.442c6.968,0,9.637,2.579,9.637,2.579s2.671-2.579,9.639-2.579
					c5.989,0,12.503,3.105,17.329,9.201c-4.551-6.876-10.966-10.361-17.329-10.361c-6.968,0-9.639,2.579-9.639,2.579
					s-2.67-2.579-9.637-2.579c-6.363,0-12.778,3.485-17.329,10.361C86.127,62.547,92.641,59.442,98.63,59.442z"/>
				<path style="fill:#FAFAFA;" d="M145.25,183.235l-2.19-17.579c-0.793-6.365-5.025-11.778-11.012-14.082l-12.259-4.719
					c-1.343-0.517-2.229-1.807-2.229-3.247v-16.614H98.974v16.614c0,1.439-0.886,2.73-2.229,3.247l-12.259,4.719
					c-5.986,2.305-10.219,7.717-11.012,14.082l-2.19,17.579H145.25z"/>
				<path style="fill:#D388AE;" d="M143.466,165.606c-0.812-6.515-5.144-12.055-11.271-14.414l-4.691-1.806
					c0,0-8.761,9.463-17.789,14.719c-0.897,0.522-1.999,0.522-2.896,0c-9.025-5.257-17.767-14.726-17.768-14.726l-4.712,1.814
					c-6.127,2.359-10.459,7.899-11.271,14.414l-2.248,18.038h74.894L143.466,165.606z"/>
				<path style="opacity:0.4;fill:#E1E1E1;" d="M98.974,138.324c2.938,1.044,6.104,1.684,9.294,1.684
					c3.189,0,6.355-0.639,9.293-1.684v-11.331H98.974V138.324z"/>
				<path style="fill:#FAFAFA;" d="M83.486,117.854V106.62c-1.388-2.838-4.963-3.761-6.863-1.104
					C73.812,109.447,79.021,117.854,83.486,117.854z"/>
				<path style="fill:#FAFAFA;" d="M133.05,117.854V106.62c1.388-2.838,4.962-3.761,6.863-1.104
					C142.723,109.447,137.515,117.854,133.05,117.854z"/>
				<path style="opacity:0.4;fill:#E1E1E1;" d="M83.486,117.854V106.62c-1.388-2.838-4.963-3.761-6.863-1.104
					C73.812,109.447,79.021,117.854,83.486,117.854z"/>
				<path style="opacity:0.4;fill:#E1E1E1;" d="M133.05,117.854V106.62c1.388-2.838,4.962-3.761,6.863-1.104
					C142.723,109.447,137.515,117.854,133.05,117.854z"/>
				<path style="fill:#FAFAFA;" d="M108.268,136.529c9.113,0,18.072-5.141,21.89-10.399c3.595-4.951,3.848-8.401,5.685-31.489
					c1.519-19.079-9.35-27.98-27.575-27.98s-29.093,8.901-27.575,27.98c1.838,23.088,2.09,26.538,5.685,31.489
					C90.196,131.388,99.155,136.529,108.268,136.529z"/>
				<path style="fill:#A04773;" d="M108.268,63.181c8.71,0,18.686,1.227,25.337,10.797c8.231,11.842,1.258,32.642,1.258,32.642
					c-1.683-4.278,0.843-10.498-3.225-16.627c-4.593-6.921-15.225-6.106-23.37-13.526c-8.145,7.42-18.777,6.606-23.37,13.526
					c-4.068,6.13-1.542,12.349-3.225,16.627c0,0-6.973-20.8,1.258-32.642C89.581,64.409,99.558,63.181,108.268,63.181z"/>
				<path style="opacity:0.3;fill:#A04773;" d="M108.267,60.862l0.001,15.604c0,0,1.159-3.954,1.159-7.802
					C109.427,64.816,108.267,60.862,108.267,60.862z"/>
			</g>
		</g>
	</g>
	<g>
		<path style="fill:#C8C8C8;" d="M306.822,44.488H193.178c-3.843,0-6.958,3.115-6.958,6.958v113.643
			c0,3.843,3.115,6.958,6.958,6.958h113.644c3.843,0,6.958-3.115,6.958-6.958V51.446C313.779,47.603,310.664,44.488,306.822,44.488z
			"/>
		<g>
			<defs>
				<path id="SVGID_00000035525548840988450940000003424461452992770698_" d="M306.822,44.488H193.178
					c-3.843,0-6.958,3.115-6.958,6.958v113.643c0,3.843,3.115,6.958,6.958,6.958h113.644c3.843,0,6.958-3.115,6.958-6.958V51.446
					C313.779,47.603,310.664,44.488,306.822,44.488z"/>
			</defs>
			<clipPath id="SVGID_00000121259559332590343990000001796894648836476039_">
				<use xlink:href="#SVGID_00000035525548840988450940000003424461452992770698_"  style="overflow:visible;"/>
			</clipPath>
			<g style="clip-path:url(#SVGID_00000121259559332590343990000001796894648836476039_);">
				<path style="fill:#FAFAFA;" d="M290.462,183.439l-2.168-17.397c-0.805-6.461-5.151-11.931-11.263-14.177l-13.14-4.827
					c-1.369-0.503-2.279-1.807-2.279-3.266v-16.575h-23.225v16.575c0,1.459-0.91,2.762-2.279,3.266l-13.14,4.827
					c-6.112,2.245-10.457,7.716-11.263,14.177l-2.168,17.397H290.462z"/>
				<path style="opacity:0.2;fill:#E1E1E1;" d="M290.462,183.439l-2.168-17.397c-0.805-6.461-5.151-11.931-11.263-14.177
					l-13.14-4.827c-1.369-0.503-2.279-1.807-2.279-3.266v-16.575h-23.225v16.575c0,1.459-0.91,2.762-2.279,3.266l-13.14,4.827
					c-6.112,2.245-10.457,7.716-11.263,14.177l-2.168,17.397H290.462z"/>
				<path style="fill:#A9DBD8;" d="M233.659,147.502l-10.832,3.979c-6.283,2.309-10.7,7.869-11.526,14.511l-2.226,17.857h81.852
					l-2.226-17.857c-0.827-6.642-5.244-12.202-11.526-14.511l-10.832-3.979c0,0-6.515,5.969-15.34,9.368
					c-0.641,0.247-1.361,0.247-2.002,0C240.173,153.471,233.659,147.502,233.659,147.502z"/>
				<path style="opacity:0.4;fill:#E1E1E1;" d="M238.387,137.606c3.55,1.589,7.565,2.606,11.613,2.606
					c4.048,0,8.062-1.017,11.612-2.606v-10.409h-23.225V137.606z"/>
				<path style="fill:#FAFAFA;" d="M225.218,118.058v-11.234c-1.388-2.838-4.962-3.761-6.863-1.104
					C215.545,109.651,220.754,118.058,225.218,118.058z"/>
				<path style="fill:#FAFAFA;" d="M274.783,118.058v-11.234c1.388-2.838,4.962-3.761,6.863-1.104
					C284.456,109.651,279.247,118.058,274.783,118.058z"/>
				<path style="opacity:0.4;fill:#E1E1E1;" d="M225.218,118.058v-11.234c-1.388-2.838-4.962-3.761-6.863-1.104
					C215.545,109.651,220.754,118.058,225.218,118.058z"/>
				<path style="opacity:0.4;fill:#E1E1E1;" d="M274.783,118.058v-11.234c1.388-2.838,4.962-3.761,6.863-1.104
					C284.456,109.651,279.247,118.058,274.783,118.058z"/>
				<path style="fill:#FAFAFA;" d="M250,136.733c9.113,0,18.072-5.141,21.89-10.399c3.595-4.951,3.847-8.401,5.685-31.489
					c1.519-19.079-9.35-27.98-27.575-27.98s-29.094,8.901-27.575,27.98c1.838,23.088,2.09,26.538,5.685,31.489
					C231.929,131.592,240.888,136.733,250,136.733z"/>
				<path style="opacity:0.2;fill:#E1E1E1;" d="M250,136.733c9.113,0,18.072-5.141,21.89-10.399
					c3.595-4.951,3.847-8.401,5.685-31.489c1.519-19.079-9.35-27.98-27.575-27.98s-29.094,8.901-27.575,27.98
					c1.838,23.088,2.09,26.538,5.685,31.489C231.929,131.592,240.888,136.733,250,136.733z"/>
				<path style="fill:#60A8A4;" d="M249.999,75.765c12.063,0,17.58,2.209,19.65,3.373c0.661,0.372,1.1,1.032,1.173,1.786
					c0.161,1.651,0.362,5.181-0.048,10.576c-0.05,0.665,0.192,1.315,0.66,1.79c0.51,0.518,1.221,1.26,1.93,2.074
					c0.371,0.426,0.574,0.97,0.571,1.535c-0.007,1.054-0.045,2.931-0.208,4.84c-0.04,0.467,0.068,0.932,0.302,1.338
					c0.559,0.974,1.658,2.796,2.565,3.746c0,0,2.702-7.622,2.702-17.462c0,0,0.543,0.102,1.086-0.814
					c0.543-0.916-0.509-2.172-0.17-2.681c0.339-0.509,1.357-1.086,1.289-2.274c-0.068-1.188-1.255-0.814-1.425-1.391
					s1.052-1.9,0.373-3.088c-0.679-1.188-1.866-0.848-1.595-2.308c0.271-1.459,0.611-2.918-0.441-3.8
					c-1.052-0.882-2.375,0.17-3.054-0.611c-0.679-0.781,0.848-2.1-1.188-4.883c-2.036-2.783-4.14-2.47-5.803-2.029
					c-1.663,0.441-2.588-0.17-2.617-1.222c-0.03-1.052-1.455-2.715-3.083-2.308c-1.629,0.407-2.274,1.188-3.427,0.204
					c-1.154-0.984-0.746-2.817-3.563-3.36c-2.816-0.543-3.858,0.533-5.678,0.533c-1.82,0-2.863-1.076-5.679-0.533
					c-2.817,0.543-2.409,2.375-3.563,3.36c-1.154,0.984-1.799,0.204-3.427-0.204c-1.629-0.407-3.054,1.256-3.084,2.308
					c-0.029,1.052-0.955,1.663-2.617,1.222s-3.767-0.754-5.803,2.029c-2.036,2.783-0.509,4.102-1.188,4.883
					c-0.679,0.78-2.002-0.271-3.054,0.611c-1.052,0.882-0.713,2.341-0.441,3.8c0.271,1.459-0.916,1.12-1.595,2.308
					c-0.679,1.188,0.543,2.511,0.373,3.088c-0.17,0.577-1.357,0.204-1.425,1.391c-0.068,1.188,0.95,1.765,1.289,2.274
					c0.339,0.509-0.713,1.764-0.17,2.681c0.543,0.916,1.086,0.814,1.086,0.814c0,9.841,2.702,17.462,2.702,17.462
					c0.908-0.95,2.006-2.772,2.565-3.746c0.233-0.406,0.341-0.871,0.302-1.338c-0.163-1.909-0.201-3.787-0.208-4.84
					c-0.004-0.565,0.199-1.109,0.571-1.535c0.709-0.814,1.42-1.556,1.93-2.074c0.468-0.475,0.711-1.125,0.66-1.79
					c-0.41-5.396-0.208-8.925-0.048-10.576c0.073-0.754,0.512-1.414,1.173-1.786C232.42,77.974,237.936,75.765,249.999,75.765z"/>
				<path style="opacity:0.3;fill:#FAFAFA;" d="M225.827,68.672c2.036-2.783,4.14-2.47,5.803-2.029
					c1.663,0.441,2.588-0.17,2.617-1.222c0.029-1.052,1.455-2.715,3.083-2.308c1.629,0.407,2.273,1.188,3.427,0.204
					c1.154-0.984,0.747-2.817,3.563-3.359c2.816-0.543,3.859,0.533,5.679,0.533c1.82,0,2.862-1.076,5.678-0.533
					c2.817,0.543,2.409,2.375,3.563,3.359c1.154,0.984,1.798,0.204,3.427-0.204c1.629-0.407,3.054,1.256,3.084,2.308
					c0.029,1.052,0.954,1.663,2.617,1.222c1.663-0.441,3.767-0.754,5.803,2.029c0.708,0.967,0.98,1.754,1.07,2.407
					c0.093-0.812,0.123-1.937-1.07-3.566c-2.036-2.783-4.14-2.47-5.803-2.029c-1.663,0.441-2.588-0.17-2.617-1.222
					c-0.03-1.052-1.455-2.715-3.084-2.308c-1.629,0.407-2.273,1.188-3.427,0.204c-1.154-0.984-0.746-2.817-3.563-3.36
					c-2.816-0.543-3.858,0.533-5.678,0.533c-1.82,0-2.862-1.076-5.679-0.533c-2.817,0.543-2.409,2.375-3.563,3.36
					c-1.154,0.984-1.798,0.204-3.427-0.204c-1.629-0.407-3.054,1.256-3.083,2.308c-0.03,1.052-0.955,1.663-2.617,1.222
					c-1.663-0.441-3.767-0.754-5.803,2.029c-1.192,1.629-1.162,2.755-1.069,3.566C224.847,70.426,225.12,69.639,225.827,68.672z"/>
			</g>
		</g>
	</g>
	<g>
		<path style="fill:#C8C8C8;" d="M448.554,44.488H334.91c-3.843,0-6.958,3.115-6.958,6.958v113.643c0,3.843,3.115,6.958,6.958,6.958
			h113.643c3.843,0,6.958-3.115,6.958-6.958V51.446C455.512,47.603,452.397,44.488,448.554,44.488z"/>
		<g>
			<defs>
				<path id="SVGID_00000036952614046331895460000017327316208650460833_" d="M448.554,44.488H334.91
					c-3.843,0-6.958,3.115-6.958,6.958v113.643c0,3.843,3.115,6.958,6.958,6.958h113.643c3.843,0,6.958-3.115,6.958-6.958V51.446
					C455.512,47.603,452.397,44.488,448.554,44.488z"/>
			</defs>
			<clipPath id="SVGID_00000018207386458757748670000016343208323470677390_">
				<use xlink:href="#SVGID_00000036952614046331895460000017327316208650460833_"  style="overflow:visible;"/>
			</clipPath>
			<g style="clip-path:url(#SVGID_00000018207386458757748670000016343208323470677390_);">
				<path style="fill:#DB8282;" d="M391.733,145.782c4.751,0,15.202-5.34,23.662-2.116c8.892,3.389,13.801,2.319,13.801,2.319
					c0-5.09-4.727-9.549-4.727-13.754c0-4.205,5.664-2.246,7.727-10.593c1.48-5.99-5.171-12.234-5.171-18.206
					c0-3.801,4.004-8.212,4.004-13.913c0-5.701-6.206-12.534-12.895-20.496c-6.062-7.217-11.809-10.741-17.238-10.741
					c-5.429,0-9.163,3.524-9.163,3.524s-3.733-3.524-9.163-3.524c-5.429,0-11.176,3.524-17.238,10.741
					c-6.689,7.962-12.895,14.795-12.895,20.496c0,5.701,4.004,10.112,4.004,13.913c0,5.972-6.651,12.216-5.171,18.206
					c2.062,8.348,7.727,6.389,7.727,10.593c0,4.205-4.727,8.663-4.727,13.754c0,0,4.909,1.069,13.801-2.319
					C376.529,140.442,386.982,145.782,391.733,145.782z"/>
				<path style="opacity:0.3;fill:#FAFAFA;" d="M365.331,70.183c6.062-7.217,11.809-10.741,17.238-10.741
					c5.43,0,9.163,3.524,9.163,3.524s3.733-3.524,9.163-3.524c5.429,0,11.176,3.524,17.238,10.741
					c6.513,7.753,12.551,14.432,12.865,20.04c0.013-0.234,0.03-0.466,0.03-0.704c0-5.701-6.207-12.534-12.895-20.496
					c-6.062-7.216-11.809-10.741-17.238-10.741c-5.429,0-9.163,3.524-9.163,3.524s-3.733-3.524-9.163-3.524
					c-5.429,0-11.176,3.524-17.238,10.741c-6.689,7.962-12.895,14.795-12.895,20.496c0,0.238,0.017,0.47,0.03,0.704
					C352.781,84.614,358.819,77.936,365.331,70.183z"/>
				<path style="fill:#FAFAFA;" d="M354.749,183.235h73.966l-2.191-17.579c-0.794-6.377-5.013-11.773-11.011-14.082l-12.259-4.72
					c-1.334-0.514-2.229-1.818-2.229-3.246v-16.614h-18.587v16.614c0,1.429-0.896,2.733-2.229,3.246l-12.258,4.72
					c-5.997,2.309-10.217,7.705-11.012,14.082L354.749,183.235z"/>
				<path style="fill:#FFCACA;" d="M426.93,165.605c-0.813-6.527-5.131-12.05-11.27-14.413l-12.259-4.72
					c-1.177-0.453-1.967-1.603-1.967-2.864c-0.007,0.003-4.064,2.072-9.702,3.067c-5.643-0.995-9.702-3.067-9.702-3.067
					c0,1.261-0.79,2.411-1.967,2.865l-12.258,4.72c-6.139,2.364-10.457,7.886-11.271,14.413l-2.248,18.038h74.893L426.93,165.605z"
					/>
				<path style="fill:#FFCACA;" d="M391.732,145.516c5.643-0.995,10.111-3.067,10.111-3.067s2.547,3.195,8.844,6.391
					c0,0-5.438,6.614-9.035,6.614c-3.484,0-9.921-6.458-9.921-6.458s-6.437,6.458-9.921,6.458c-3.597,0-9.035-6.614-9.035-6.614
					c6.297-3.195,8.844-6.391,8.844-6.391S386.088,144.52,391.732,145.516z"/>
				<path style="opacity:0.5;fill:#FAFAFA;" d="M391.732,145.516c5.643-0.995,10.111-3.067,10.111-3.067s2.547,3.195,8.844,6.391
					c0,0-5.438,6.614-9.035,6.614c-3.484,0-9.921-6.458-9.921-6.458s-6.437,6.458-9.921,6.458c-3.597,0-9.035-6.614-9.035-6.614
					c6.297-3.195,8.844-6.391,8.844-6.391S386.088,144.52,391.732,145.516z"/>
				<path style="opacity:0.4;fill:#E1E1E1;" d="M382.438,138.324c2.938,1.044,6.104,1.684,9.294,1.684
					c3.189,0,6.355-0.639,9.293-1.684v-11.331h-18.587V138.324z"/>
				<path style="fill:#FAFAFA;" d="M366.95,117.854V106.62c-1.388-2.838-4.963-3.761-6.863-1.104
					C357.277,109.447,362.485,117.854,366.95,117.854z"/>
				<path style="fill:#FAFAFA;" d="M416.514,117.854V106.62c1.388-2.838,4.962-3.761,6.863-1.104
					C426.188,109.447,420.979,117.854,416.514,117.854z"/>
				<path style="opacity:0.4;fill:#E1E1E1;" d="M366.95,117.854V106.62c-1.388-2.838-4.963-3.761-6.863-1.104
					C357.277,109.447,362.485,117.854,366.95,117.854z"/>
				<path style="opacity:0.4;fill:#E1E1E1;" d="M416.514,117.854V106.62c1.388-2.838,4.962-3.761,6.863-1.104
					C426.188,109.447,420.979,117.854,416.514,117.854z"/>
				<path style="fill:#FAFAFA;" d="M391.732,136.529c9.113,0,18.072-5.141,21.89-10.399c3.595-4.951,3.848-8.401,5.685-31.489
					c1.519-19.079-9.35-27.98-27.575-27.98s-29.094,8.901-27.575,27.98c1.838,23.088,2.09,26.538,5.685,31.489
					C373.661,131.388,382.619,136.529,391.732,136.529z"/>
				<path style="fill:#DB8282;" d="M391.733,64.409c23.957,0,29.319,14.32,29.319,25.179c0,9.23-2.724,17.032-2.724,17.032
					c-5.056-5.125-3.395-12.089-3.395-12.089c-5.09-3.665-6.166-13.02-9.808-16.527c0,0-4.911-1.448-13.394-1.448
					c-8.483,0-13.393,1.448-13.393,1.448c-3.642,3.507-4.718,12.862-9.808,16.527c0,0,1.661,6.964-3.395,12.089
					c0,0-2.724-7.802-2.724-17.032C362.413,78.729,367.776,64.409,391.733,64.409z"/>
				<g style="opacity:0.3;">
					<path style="fill:#DB8282;" d="M420.342,98.565c-4.666-3.609-5.395-4.025-5.408-4.033c-0.002,0.007-0.94,3.966,0.764,8.109
						c-0.455-2.217,0.149-4.909,0.149-4.909c3.574,2.036,7.42,4.483,9.479,8.888C425.326,106.62,425.055,102.211,420.342,98.565z"/>
					<path style="fill:#DB8282;" d="M363.121,98.565c-4.712,3.645-4.984,8.054-4.984,8.054c2.059-4.406,5.905-6.852,9.479-8.888
						c0,0,0.606,2.697,0.148,4.915c1.709-4.149,0.767-8.115,0.767-8.115l0,0C368.532,94.531,367.834,94.92,363.121,98.565z"/>
					<path style="fill:#DB8282;" d="M375.647,79.068c0,0,0.014,3.124-1.044,5.639h0.001c1.118-2.697,2.198-5.222,3.736-6.702
						c0,0,4.909-1.448,13.392-1.448c8.484,0,13.394,1.448,13.394,1.448c1.53,1.473,2.608,3.982,3.72,6.664
						c-1.043-2.508-1.03-5.601-1.03-5.601c3.842-3.842,3.842-9.935,0.699-12.478c-3.628-2.935-9.655-4.436-16.782-4.436
						c-7.129,0-13.158,1.501-16.786,4.438C371.805,69.135,371.806,75.226,375.647,79.068z"/>
				</g>
				<path style="fill:#DB8282;" d="M391.732,61.807c9.772,0,14.524,2.986,16.107,5.701c1.879,3.221-0.362,8.687-2.715,10.497
					c-2.353,1.81-10.587,1.448-13.393,2.896h0c-2.806-1.448-11.04-1.086-13.393-2.896c-2.353-1.81-4.594-7.276-2.715-10.497
					C377.208,64.793,381.96,61.807,391.732,61.807z"/>
				<g>
					<path style="fill:#FFCACA;" d="M400.076,61.825c-0.125,0.791-3.848,0.793-8.344,0.793c-4.496,0-8.219-0.002-8.345-0.793
						c-0.126-0.791,3.597-2.106,8.345-2.106C396.48,59.718,400.201,61.034,400.076,61.825z"/>
				</g>
			</g>
		</g>
	</g>
	<g>
		<path style="fill:#C8C8C8;" d="M165.089,186.221H51.446c-3.843,0-6.958,3.115-6.958,6.958v113.644
			c0,3.843,3.115,6.958,6.958,6.958h113.643c3.843,0,6.958-3.115,6.958-6.958V193.178
			C172.047,189.336,168.932,186.221,165.089,186.221z"/>
		<g>
			<defs>
				<path id="SVGID_00000124139691916236510470000011825136257149760700_" d="M165.089,186.221H51.446
					c-3.843,0-6.958,3.115-6.958,6.958v113.644c0,3.843,3.115,6.958,6.958,6.958h113.643c3.843,0,6.958-3.115,6.958-6.958V193.178
					C172.047,189.336,168.932,186.221,165.089,186.221z"/>
			</defs>
			<clipPath id="SVGID_00000169548342450448450240000016262670918934875065_">
				<use xlink:href="#SVGID_00000124139691916236510470000011825136257149760700_"  style="overflow:visible;"/>
			</clipPath>
			<g style="clip-path:url(#SVGID_00000169548342450448450240000016262670918934875065_);">
				<path style="fill:#FAFAFA;" d="M148.73,324.967l-2.168-17.397c-0.805-6.461-5.151-11.931-11.263-14.177l-13.14-4.827
					c-1.369-0.503-2.279-1.807-2.279-3.266v-16.575H96.655V285.3c0,1.459-0.91,2.763-2.279,3.266l-13.14,4.827
					c-6.112,2.245-10.458,7.716-11.263,14.177l-2.168,17.397H148.73z"/>
				<path style="fill:#60A8A4;" d="M133.05,259.586c7.587-8.574,8.701-19.93,8.701-19.93l1.538,1.38c0,0,1.832-12.216-3.801-23.279
					c-7.245-14.228-16.424-17.482-22.803-17.482c-5.339,0-8.417,2.585-8.417,2.585s-3.079-2.585-8.418-2.585
					c-6.38,0-15.559,3.255-22.804,17.482c-5.633,11.062-3.801,23.279-3.801,23.279l1.538-1.38c0,0,1.115,11.356,8.701,19.93H133.05z
					"/>
				<path style="opacity:0.4;fill:#E1E1E1;" d="M96.656,279.134c3.55,1.588,7.565,2.606,11.613,2.606
					c4.048,0,8.062-1.017,11.612-2.606v-10.409H96.656V279.134z"/>
				<path style="fill:#FAFAFA;" d="M83.487,259.586v-11.234c-1.388-2.838-4.963-3.761-6.863-1.104
					C73.813,251.179,79.022,259.586,83.487,259.586z"/>
				<path style="fill:#FAFAFA;" d="M133.051,259.586v-11.234c1.388-2.838,4.963-3.761,6.863-1.104
					C142.724,251.179,137.516,259.586,133.051,259.586z"/>
				<path style="opacity:0.4;fill:#E1E1E1;" d="M83.487,259.586v-11.234c-1.388-2.838-4.963-3.761-6.863-1.104
					C73.813,251.179,79.022,259.586,83.487,259.586z"/>
				<path style="opacity:0.4;fill:#E1E1E1;" d="M133.051,259.586v-11.234c1.388-2.838,4.963-3.761,6.863-1.104
					C142.724,251.179,137.516,259.586,133.051,259.586z"/>
				<path style="fill:#FAFAFA;" d="M108.269,278.261c9.113,0,18.072-5.141,21.89-10.399c3.595-4.951,3.848-8.401,5.685-31.489
					c1.519-19.079-9.35-27.98-27.575-27.98c-18.225,0-29.093,8.901-27.575,27.98c1.838,23.089,2.09,26.538,5.685,31.489
					C90.197,273.12,99.156,278.261,108.269,278.261z"/>
				<path style="fill:#A9DBD8;" d="M146.968,307.519c-0.828-6.642-5.245-12.202-11.527-14.511l-13.14-4.827
					c-1.203-0.442-2.012-1.6-2.012-2.881v-2.054l-12.022,4.007l-12.022-4.007v2.054c0,1.282-0.808,2.439-2.011,2.881l-13.14,4.827
					c-6.282,2.308-10.699,7.869-11.527,14.511l-2.225,17.857h81.851L146.968,307.519z"/>
				<path style="fill:#60A8A4;" d="M114.066,325.376c-1.175-14.833-3.479-28.689-3.479-28.689c1.357-2.783,2.588-5.905,2.588-5.905
					v-2.949h-4.908h-4.908v2.949c0,0,1.231,3.122,2.588,5.905c0,0-2.304,13.856-3.479,28.689H114.066z"/>
				<path style="fill:#60A8A4;" d="M108.269,206.219c-11.196,0-23.756,2.173-28.303,15.021c-4.747,13.414,1.707,27.111,1.707,27.111
					l0.854-1.06c0.815-1.011,1.166-2.312,0.976-3.596c-0.14-0.941-0.297-2.154-0.415-3.497c-0.271-3.077,1.697-9.886,1.697-9.886
					c0-12.488,14.185-15.542,23.485-15.542s23.484,3.054,23.484,15.542c0,0,1.968,6.809,1.697,9.886
					c-0.118,1.343-0.276,2.556-0.415,3.497c-0.191,1.285,0.16,2.585,0.975,3.596l0.854,1.06c0,0,6.455-13.697,1.707-27.111
					C132.025,208.392,119.465,206.219,108.269,206.219z"/>
				<path style="opacity:0.3;fill:#60A8A4;" d="M85.666,225.358H82.68c0,0-2.127,4.796-2.127,16.424c0,0,0.998,0.602,2.879,1.412
					c-0.12-0.857-0.245-1.876-0.344-2.996c-0.271-3.077,1.697-9.886,1.697-9.886C84.784,228.458,85.103,226.817,85.666,225.358z"/>
				<path style="opacity:0.3;fill:#60A8A4;" d="M130.871,225.358h2.986c0,0,2.128,4.796,2.128,16.424c0,0-0.999,0.602-2.879,1.412
					c0.12-0.857,0.245-1.876,0.344-2.996c0.271-3.077-1.697-9.886-1.697-9.886C131.753,228.458,131.434,226.817,130.871,225.358z"/>
				<path style="fill:#60A8A4;" d="M133.856,225.358c0,0-1.421-14.886-25.588-14.886S82.68,225.358,82.68,225.358
					s-1.918,5.952-1.052,16.051c0,0,1.57,0.99,4.099,2.181c0.244-1.601,0.595-3.029,0.595-3.029
					c-0.066,1.053-0.067,2.287-0.052,3.281c0.509,0.233,1.053,0.47,1.626,0.708c0.288-7.286,2.046-11.364,2.046-11.364
					c-1.013,6.881-0.84,10.568-0.708,11.896c0.535,0.204,1.086,0.406,1.658,0.6c3.122-22.156,9.275-24.548,12.307-25.148
					c2.654-0.525,5.069,1.16,5.069,1.16s2.415-1.685,5.069-1.16c3.031,0.6,9.185,2.992,12.307,25.148
					c0.572-0.194,1.123-0.396,1.658-0.6c0.132-1.328,0.305-5.015-0.708-11.896c0,0,1.758,4.078,2.046,11.364
					c1.264-0.525,2.379-1.048,3.31-1.515c0.003-0.81-0.011-1.692-0.059-2.474c0,0,0.246,1.002,0.47,2.267
					c1.603-0.823,2.548-1.419,2.548-1.419C135.773,231.31,133.856,225.358,133.856,225.358z"/>
				<path style="fill:#A9DBD8;" d="M108.268,288.993c3.956,3.628,8.607,7.694,8.607,7.694c3.224-4.31,6.586-9.085,6.586-9.085
					l-2.591-4.936l-12.603,4.587l-12.602-4.587l-2.591,4.936c0,0,3.363,4.776,6.586,9.085
					C99.662,296.687,104.312,292.621,108.268,288.993z"/>
				<path style="opacity:0.3;fill:#FAFAFA;" d="M108.268,288.993c3.956,3.628,8.607,7.694,8.607,7.694
					c3.224-4.31,6.586-9.085,6.586-9.085l-2.591-4.936l-12.603,4.587l-12.602-4.587l-2.591,4.936c0,0,3.363,4.776,6.586,9.085
					C99.662,296.687,104.312,292.621,108.268,288.993z"/>
				<path style="opacity:0.3;fill:#FAFAFA;" d="M77.047,218.917c7.245-14.228,16.424-17.482,22.804-17.482
					c5.339,0,8.418,2.585,8.418,2.585s3.078-2.585,8.417-2.585c6.379,0,15.559,3.255,22.803,17.482
					c3.277,6.436,4.026,13.258,4.081,17.842c0.059-4.536-0.514-11.998-4.081-19.002c-7.245-14.228-16.424-17.482-22.803-17.482
					c-5.339,0-8.417,2.585-8.417,2.585s-3.079-2.585-8.418-2.585c-6.38,0-15.559,3.254-22.804,17.482
					c-3.566,7.004-4.14,14.466-4.081,19.002C73.021,232.175,73.77,225.353,77.047,218.917z"/>
				<path style="opacity:0.3;fill:#60A8A4;" d="M108.269,202.86l-0.001,18.833c0,0,1.16-4.561,1.16-9.417
					S108.269,202.86,108.269,202.86z"/>
			</g>
		</g>
	</g>
	<g>
		<path style="fill:#C8C8C8;" d="M306.822,186.221H193.178c-3.843,0-6.958,3.115-6.958,6.958v113.644
			c0,3.843,3.115,6.958,6.958,6.958h113.644c3.843,0,6.958-3.115,6.958-6.958V193.178
			C313.779,189.336,310.664,186.221,306.822,186.221z"/>
		<g>
			<defs>
				<path id="SVGID_00000000930503427996184170000007756056739054989190_" d="M306.822,186.221H193.178
					c-3.843,0-6.958,3.115-6.958,6.958v113.644c0,3.843,3.115,6.958,6.958,6.958h113.644c3.843,0,6.958-3.115,6.958-6.958V193.178
					C313.779,189.336,310.664,186.221,306.822,186.221z"/>
			</defs>
			<clipPath id="SVGID_00000103986153164896621950000004278569389741304989_">
				<use xlink:href="#SVGID_00000000930503427996184170000007756056739054989190_"  style="overflow:visible;"/>
			</clipPath>
			<g style="clip-path:url(#SVGID_00000103986153164896621950000004278569389741304989_);">
				<path style="fill:#DB8282;" d="M259.293,271.045c18.478,4.377,16.451-3.167,19.03-6.401c2.084-2.613,6.38-2.648,7.737-7.772
					c0.756-2.854-2.09-5.195-1.448-6.639c0.724-1.629,4.66,0,5.61-1.88c3.894-7.705-5.339-8.255-5.339-10.789s2.624-1.9,2.624-5.791
					c0-3.891-2.507-16.247-11.786-25.224c-8.348-8.076-20.149-8.745-28.041-6.533c-5.147,1.443-7.386,3.524-7.386,3.524
					s-9.026-3.524-16.017,3.009c-9.433,8.816-11.786,21.333-11.786,25.224c0,3.891,2.624,3.258,2.624,5.791
					s-9.233,3.084-5.339,10.789c0.95,1.88,4.887,0.251,5.61,1.88c0.642,1.444-2.204,3.785-1.448,6.639
					c1.357,5.125,5.653,5.159,7.737,7.772c2.579,3.234,0.552,10.779,19.03,6.401H259.293z"/>
				<path style="fill:#FAFAFA;" d="M286.983,324.967l-2.191-17.579c-0.793-6.365-5.025-11.778-11.012-14.082l-12.259-4.719
					c-1.343-0.517-2.229-1.807-2.229-3.247v-16.614h-18.587v16.614c0,1.439-0.886,2.73-2.229,3.247l-12.259,4.719
					c-5.986,2.305-10.219,7.717-11.012,14.082l-2.191,17.579H286.983z"/>
				<path style="fill:#FFCACA;" d="M285.199,307.339c-0.812-6.516-5.144-12.055-11.271-14.415l-4.037-1.555
					c-0.152,1.817-0.559,5.074-1.639,8.61c-0.329,1.078-1.273,1.852-2.394,1.974c-3.036,0.331-9.465,0.936-15.857,0.936
					c-6.392,0-12.82-0.605-15.857-0.936c-1.121-0.122-2.065-0.896-2.394-1.974c-1.08-3.536-1.487-6.793-1.639-8.611l-4.038,1.555
					c-6.139,2.363-10.457,7.886-11.27,14.413l-2.248,18.038h74.893L285.199,307.339z"/>
				<path style="opacity:0.4;fill:#E1E1E1;" d="M240.707,280.056c2.938,1.044,6.104,1.684,9.294,1.684
					c3.189,0,6.355-0.639,9.293-1.684v-11.331h-18.587V280.056z"/>
				<path style="fill:#FAFAFA;" d="M225.218,259.586v-11.234c-1.388-2.838-4.962-3.761-6.863-1.104
					C215.545,251.179,220.753,259.586,225.218,259.586z"/>
				<path style="fill:#FAFAFA;" d="M274.782,259.586v-11.234c1.388-2.838,4.963-3.761,6.863-1.104
					C284.456,251.179,279.247,259.586,274.782,259.586z"/>
				<path style="opacity:0.4;fill:#E1E1E1;" d="M225.218,259.586v-11.234c-1.388-2.838-4.962-3.761-6.863-1.104
					C215.545,251.179,220.753,259.586,225.218,259.586z"/>
				<path style="opacity:0.4;fill:#E1E1E1;" d="M274.782,259.586v-11.234c1.388-2.838,4.963-3.761,6.863-1.104
					C284.456,251.179,279.247,259.586,274.782,259.586z"/>
				<path style="fill:#FAFAFA;" d="M250,278.261c9.113,0,18.071-5.141,21.89-10.399c3.595-4.951,3.848-8.401,5.685-31.489
					c1.519-19.079-9.35-27.98-27.575-27.98s-29.094,8.901-27.575,27.98c1.838,23.088,2.09,26.538,5.685,31.489
					C231.929,273.12,240.888,278.261,250,278.261z"/>
				<path style="fill:#DB8282;" d="M278.611,218.832c-5.082-10.731-17.074-13.919-28.611-13.919
					c-11.538,0-23.529,3.187-28.61,13.919c-6.138,12.963,2.016,29.52,2.016,29.52s1.813-3.391,1.813-7.26
					c0,0,2.04-2.861,3.527-9.366c1.935-8.461,5.554-11.447,11.549-9.501c0,0,2.036-3.388,6.227-1.527
					c6.426,2.854,15.583,18.228,28.098,20.186c0.101,0.134,0.163,0.207,0.163,0.207c0,3.868,1.813,7.26,1.813,7.26
					S284.749,231.795,278.611,218.832z"/>
				<path style="opacity:0.3;fill:#DB8282;" d="M274.611,240.883c0.003,0,0.006,0.001,0.009,0.002
					c0.101,0.134,0.163,0.207,0.163,0.207c0,0.126,0.007,0.251,0.011,0.376c1.511-0.131,2.443-0.376,2.443-0.376
					C276.345,241.092,275.47,241.018,274.611,240.883z"/>
				<path style="opacity:0.3;fill:#FAFAFA;" d="M224.278,207.708c6.99-6.533,16.017-3.009,16.017-3.009s2.24-2.081,7.386-3.524
					c7.892-2.213,19.693-1.543,28.041,6.533c8.809,8.523,11.513,20.085,11.764,24.564c0.01-0.161,0.022-0.321,0.022-0.5
					c0-3.891-2.507-16.247-11.786-25.224c-8.348-8.076-20.149-8.745-28.041-6.533c-5.147,1.443-7.386,3.524-7.386,3.524
					s-9.026-3.524-16.017,3.009c-9.433,8.816-11.786,21.333-11.786,25.224c0,0.174,0.011,0.329,0.021,0.486
					C212.755,227.755,215.331,216.069,224.278,207.708z"/>
				<path style="opacity:0.3;fill:#DB8282;" d="M240.295,203.539c0,0-1.742,8.325,0,18.686c0,0-1.928-4.977-1.923-10.135
					C238.378,206.251,240.295,203.539,240.295,203.539z"/>
			</g>
		</g>
	</g>
	<g>
		<path style="fill:#C8C8C8;" d="M165.089,327.953H51.446c-3.843,0-6.958,3.115-6.958,6.958v113.643
			c0,3.843,3.115,6.958,6.958,6.958h113.643c3.843,0,6.958-3.115,6.958-6.958V334.91
			C172.047,331.068,168.932,327.953,165.089,327.953z"/>
		<g>
			<defs>
				<path id="SVGID_00000112595450880029297310000008465610847299517072_" d="M165.089,327.953H51.446
					c-3.843,0-6.958,3.115-6.958,6.958v113.643c0,3.843,3.115,6.958,6.958,6.958h113.643c3.843,0,6.958-3.115,6.958-6.958V334.91
					C172.047,331.068,168.932,327.953,165.089,327.953z"/>
			</defs>
			<clipPath id="SVGID_00000109030270805431957970000008288124597271106209_">
				<use xlink:href="#SVGID_00000112595450880029297310000008465610847299517072_"  style="overflow:visible;"/>
			</clipPath>
			<g style="clip-path:url(#SVGID_00000109030270805431957970000008288124597271106209_);">
				<path style="fill:#DB8282;" d="M136.673,354.621c3.448,3.387,9.284,7.844,14.578,5.978c0,0-2.454,3.427-6.499,3.427
					c0,0,1.885,3.093,8.342,4.722c0,0-2.16,3.648-7.051,2.608c0,0,0.955,4.434-1.262,7.737c0,0-1.466-7.963-8.108-15.067V354.621z"
					/>
				<path style="fill:#DB8282;" d="M79.862,354.621c-3.448,3.387-9.284,7.844-14.578,5.978c0,0,2.454,3.427,6.499,3.427
					c0,0-1.885,3.093-8.342,4.722c0,0,2.16,3.648,7.051,2.608c0,0-0.955,4.434,1.262,7.737c0,0,1.466-7.963,8.108-15.067V354.621z"
					/>
				<path style="opacity:0.3;fill:#DB8282;" d="M72.854,359.774c0.969,0.047,2.071,0.004,3.244-0.222c0,0-6.322,10.368-4.129,18.623
					c0.597-2.288,2.601-8.49,7.893-14.15v-9.404C78.047,356.404,75.566,358.476,72.854,359.774z"/>
				<path style="opacity:0.3;fill:#DB8282;" d="M143.681,359.774c-0.969,0.047-2.071,0.004-3.244-0.222
					c0,0,6.322,10.368,4.129,18.623c-0.596-2.288-2.601-8.49-7.893-14.15v-9.404C138.489,356.404,140.969,358.476,143.681,359.774z"
					/>
				<path style="fill:#FAFAFA;" d="M145.251,466.699l-2.19-17.579c-0.793-6.366-5.025-11.778-11.012-14.082l-12.259-4.719
					c-1.343-0.517-2.229-1.808-2.229-3.247v-16.614H98.974v16.614c0,1.439-0.886,2.73-2.229,3.247l-12.259,4.719
					c-5.986,2.305-10.218,7.717-11.012,14.082l-2.19,17.579H145.251z"/>
				<path style="fill:#FFCACA;" d="M143.466,449.07c-0.813-6.528-5.132-12.051-11.271-14.414l-10.423-4.013
					c-2.549,0.713-7.149,1.906-11.186,2.449h-2.319h-2.319c-4.037-0.543-8.636-1.736-11.185-2.449l-10.424,4.013
					c-6.139,2.363-10.457,7.886-11.27,14.414l-2.249,18.038h74.893L143.466,449.07z"/>
				<path style="fill:#FFCACA;" d="M124.269,431.166l-4.185-1.611c-0.004,0.002-3.186,1.219-9.497,3.537c0,0,1.26,1.396,3.963,9.348
					C114.549,442.44,119.903,437.633,124.269,431.166z"/>
				<path style="fill:#FFCACA;" d="M101.985,442.44c2.703-7.952,3.963-9.348,3.963-9.348c-6.316-2.319-9.498-3.537-9.498-3.537
					l-4.185,1.611C96.631,437.633,101.985,442.44,101.985,442.44z"/>
				<path style="opacity:0.5;fill:#FAFAFA;" d="M124.269,431.166l-4.185-1.611c-0.004,0.002-3.186,1.219-9.497,3.537
					c0,0,1.26,1.396,3.963,9.348C114.549,442.44,119.903,437.633,124.269,431.166z"/>
				<path style="opacity:0.5;fill:#FAFAFA;" d="M101.985,442.44c2.703-7.952,3.963-9.348,3.963-9.348
					c-6.316-2.319-9.498-3.537-9.498-3.537l-4.185,1.611C96.631,437.633,101.985,442.44,101.985,442.44z"/>
				<path style="opacity:0.4;fill:#E1E1E1;" d="M98.974,421.788c2.938,1.044,6.104,1.684,9.294,1.684
					c3.189,0,6.355-0.639,9.293-1.684v-11.331H98.974V421.788z"/>
				<path style="fill:#FAFAFA;" d="M83.486,401.318v-11.234c-1.388-2.838-4.963-3.761-6.863-1.104
					C73.812,392.911,79.021,401.318,83.486,401.318z"/>
				<path style="fill:#FAFAFA;" d="M133.05,401.318v-11.234c1.388-2.838,4.962-3.761,6.863-1.104
					C142.723,392.911,137.515,401.318,133.05,401.318z"/>
				<path style="opacity:0.4;fill:#E1E1E1;" d="M83.486,401.318v-11.234c-1.388-2.838-4.963-3.761-6.863-1.104
					C73.812,392.911,79.021,401.318,83.486,401.318z"/>
				<path style="opacity:0.4;fill:#E1E1E1;" d="M133.05,401.318v-11.234c1.388-2.838,4.962-3.761,6.863-1.104
					C142.723,392.911,137.515,401.318,133.05,401.318z"/>
				<path style="fill:#FAFAFA;" d="M108.268,419.993c9.113,0,18.071-5.141,21.89-10.399c3.595-4.951,3.848-8.401,5.685-31.489
					c1.519-19.079-9.35-27.98-27.575-27.98s-29.094,8.901-27.575,27.98c1.838,23.089,2.09,26.538,5.685,31.489
					C90.196,414.852,99.155,419.993,108.268,419.993z"/>
				<path style="fill:#DB8282;" d="M128.04,348.325c-1.584-2.307-1.387-5.498,0.582-6.704c1.907-1.168,4.531,0.098,4.531,0.098
					s1.352-2.947,5.882-2.398c4.479,0.543,10.904,6.696,5.837,10.803c2.127,3.178,1.683,6.866-0.543,8.155
					c-4.008,2.319-7.524-1.197-7.524-1.197S132.474,351.221,128.04,348.325z"/>
				<path style="fill:#DB8282;" d="M108.268,345.486c3.122-1.968,10.656-4.435,18.528,0.102
					c7.873,4.537,15.246,14.382,16.752,25.439c1.573,11.549-8.684,19.058-8.684,19.058s-2.57-2.622-2.57-7.441
					s2.443-14.609-5.09-22.21c0,0-6.924-6.905-18.936-6.905c-12.012,0-18.936,6.905-18.936,6.905
					c-7.533,7.601-5.09,17.392-5.09,22.21s-2.57,7.441-2.57,7.441s-10.257-7.508-8.684-19.058
					c1.506-11.057,8.879-20.902,16.752-25.439C97.612,341.051,105.145,343.517,108.268,345.486z"/>
				<path style="fill:#DB8282;" d="M108.268,352.533c7.239,0,13.374,1.507,18.551,5.837c5.248,4.389,7.41,10.294,7.41,10.294
					c-10.225-2.178-16.007-9.262-16.007-9.262c1.403,2.805,3.031,6.943,3.031,6.943c-6.38-1.719-11.266-5.552-12.986-9.262
					c-1.72,3.71-6.606,7.543-12.986,9.262c0,0,1.629-4.138,3.031-6.943c0,0-5.781,7.085-16.007,9.262c0,0,2.162-5.905,7.41-10.294
					C94.894,354.04,101.029,352.533,108.268,352.533z"/>
				<path style="fill:#DB8282;" d="M88.495,348.325c1.584-2.307,1.387-5.498-0.582-6.704c-1.907-1.168-4.531,0.098-4.531,0.098
					s-1.352-2.947-5.882-2.398c-4.479,0.543-10.904,6.696-5.837,10.803c-2.127,3.178-1.683,6.866,0.543,8.155
					c4.008,2.319,7.524-1.197,7.524-1.197S84.061,351.221,88.495,348.325z"/>
				<path style="opacity:0.3;fill:#FAFAFA;" d="M72.988,372.186c1.506-11.057,8.879-20.902,16.752-25.439
					c7.873-4.537,15.406-2.07,18.528-0.102c3.123-1.968,10.656-4.435,18.528,0.102c7.873,4.537,15.246,14.382,16.752,25.439
					c0.086,0.635,0.131,1.256,0.15,1.866c0.035-0.974-0.008-1.983-0.15-3.025c-1.506-11.057-8.879-20.902-16.752-25.439
					c-7.873-4.537-15.406-2.07-18.528-0.102c-3.122-1.968-10.656-4.435-18.528,0.102c-7.873,4.537-15.246,14.382-16.752,25.439
					c-0.142,1.043-0.185,2.051-0.15,3.025C72.856,373.441,72.901,372.821,72.988,372.186z"/>
				<path style="opacity:0.3;fill:#DB8282;" d="M108.268,345.486v11.596c0,0,0.928-2.496,0.928-5.798
					C109.195,347.981,108.268,345.486,108.268,345.486z"/>
				<g style="opacity:0.3;">
					<path style="fill:#DB8282;" d="M83.382,341.719c-3.694,3.227-8.448,4.634-11.718,8.405
						C74.038,345.619,79.153,343.938,83.382,341.719L83.382,341.719z"/>
				</g>
				<g style="opacity:0.3;">
					<path style="fill:#DB8282;" d="M133.153,341.719c4.228,2.218,9.346,3.901,11.718,8.405
						C141.601,346.353,136.848,344.947,133.153,341.719L133.153,341.719z"/>
				</g>
			</g>
		</g>
	</g>
	<g>
		<path style="fill:#C8C8C8;" d="M306.822,327.953H193.178c-3.843,0-6.958,3.115-6.958,6.958v113.643
			c0,3.843,3.115,6.958,6.958,6.958h113.644c3.843,0,6.958-3.115,6.958-6.958V334.91
			C313.779,331.068,310.664,327.953,306.822,327.953z"/>
		<g>
			<defs>
				<path id="SVGID_00000024710571098117041570000005932663185235720614_" d="M306.822,327.953H193.178
					c-3.843,0-6.958,3.115-6.958,6.958v113.643c0,3.843,3.115,6.958,6.958,6.958h113.644c3.843,0,6.958-3.115,6.958-6.958V334.91
					C313.779,331.068,310.664,327.953,306.822,327.953z"/>
			</defs>
			<clipPath id="SVGID_00000137111767841232245700000010731947135904505257_">
				<use xlink:href="#SVGID_00000024710571098117041570000005932663185235720614_"  style="overflow:visible;"/>
			</clipPath>
			<g style="clip-path:url(#SVGID_00000137111767841232245700000010731947135904505257_);">
				<path style="fill:#FAFAFA;" d="M290.462,466.903l-2.168-17.397c-0.805-6.461-5.151-11.931-11.263-14.177l-13.14-4.827
					c-1.369-0.503-2.279-1.807-2.279-3.266v-16.575h-23.225v16.575c0,1.459-0.91,2.763-2.279,3.266l-13.14,4.827
					c-6.112,2.245-10.458,7.716-11.263,14.177l-2.168,17.397H290.462z"/>
				<path style="opacity:0.4;fill:#E1E1E1;" d="M238.388,421.07c3.55,1.589,7.565,2.606,11.613,2.606
					c4.048,0,8.062-1.018,11.612-2.606v-10.409h-23.225V421.07z"/>
				<path style="fill:#D388AE;" d="M288.701,449.456c-0.828-6.642-5.246-12.202-11.527-14.511l-13.14-4.827
					c-1.203-0.442-2.012-1.6-2.012-2.881c0,0-5.92,4.503-12.022,6.246c-6.101-1.742-12.022-6.246-12.022-6.246
					c0,1.282-0.808,2.439-2.011,2.881l-13.14,4.827c-6.283,2.308-10.7,7.869-11.527,14.511l-2.225,17.857h81.851L288.701,449.456z"
					/>
				<path style="fill:#D388AE;" d="M249.999,433.483c5.366-1.833,9.655-5.189,11.598-6.594l0.833,0c0,0,1.339,2.102,4.475,3.829
					c0,0-1.744,6.248-10.297,14.28c0,0-3.275-6.176-4.87-9.196l-1.738-1.16l-1.74,1.16c-1.595,3.02-4.87,9.196-4.87,9.196
					c-8.552-8.032-10.296-14.28-10.296-14.28c3.136-1.726,4.475-3.829,4.475-3.829l0.833,0
					C240.345,428.294,244.633,431.65,249.999,433.483z"/>
				<path style="opacity:0.3;fill:#FAFAFA;" d="M249.999,433.483c5.366-1.833,9.655-5.189,11.598-6.594l0.833,0
					c0,0,1.339,2.102,4.475,3.829c0,0-1.744,6.248-10.297,14.28c0,0-3.275-6.176-4.87-9.196l-1.738-1.16l-1.74,1.16
					c-1.595,3.02-4.87,9.196-4.87,9.196c-8.552-8.032-10.296-14.28-10.296-14.28c3.136-1.726,4.475-3.829,4.475-3.829l0.833,0
					C240.345,428.294,244.633,431.65,249.999,433.483z"/>
				<path style="fill:#FAFAFA;" d="M225.219,401.523v-11.234c-1.388-2.838-4.962-3.761-6.863-1.104
					C215.545,393.116,220.754,401.523,225.219,401.523z"/>
				<path style="fill:#FAFAFA;" d="M274.783,401.523v-11.234c1.388-2.838,4.962-3.761,6.863-1.104
					C284.456,393.116,279.248,401.523,274.783,401.523z"/>
				<path style="opacity:0.4;fill:#E1E1E1;" d="M225.219,401.523v-11.234c-1.388-2.838-4.962-3.761-6.863-1.104
					C215.545,393.116,220.754,401.523,225.219,401.523z"/>
				<path style="opacity:0.4;fill:#E1E1E1;" d="M274.783,401.523v-11.234c1.388-2.838,4.962-3.761,6.863-1.104
					C284.456,393.116,279.248,401.523,274.783,401.523z"/>
				<path style="fill:#FAFAFA;" d="M250.001,420.198c9.113,0,18.071-5.141,21.89-10.399c3.595-4.951,3.848-8.401,5.685-31.489
					c1.519-19.079-9.35-27.98-27.575-27.98s-29.094,8.901-27.575,27.98c1.838,23.088,2.09,26.538,5.685,31.489
					C231.929,415.057,240.888,420.198,250.001,420.198z"/>
				<path style="fill:#A04773;" d="M280.494,354.274c-2.483-4.944-7.1-10.223-11.399-9.16c0,0-5.678-5.932-19.095-5.932
					c-8.708,0-20.241,4.074-26.512,11.147c-7.33,8.268-8.613,19.231-8.613,22.927c0,8.393,3.648,17.284,5.265,17.033
					c1.163-0.18,2.145-4.398,2.145-4.398s0.472,3.061,1.12,4.398l1.29-3.128c0.34-0.825,0.486-1.716,0.424-2.607
					c-0.093-1.338-0.229-3.528-0.307-5.852c1.025,4.403,2.645,7.189,3.381,7.189c1.222,0,1.349-3.029,1.629-7.635
					c0,0,1.448,5,3.533,4.166c1.775-0.71,1.444-9.573,8.14-18.826c-1.765,3.326-5.209,13.786-3.801,14.524
					c1.425,0.747,7.058-4.411,10.044-7.873c-1.154,1.832-2.918,6.176-1.765,6.787c1.154,0.611,6.787-5.294,13.573-13.234
					c-2.918,5.09-5.603,13.094-4.276,13.845c1.561,0.882,8.784-6.049,13.822-13.981c1.961,0.609,4.843,3.296,5.686,5.992
					c0.846,2.707,0.335,11.518,0.099,14.898c-0.062,0.891,0.084,1.781,0.424,2.607l1.29,3.128c0.649-1.337,1.12-4.398,1.12-4.398
					s0.983,4.217,2.145,4.398c1.617,0.251,5.265-8.64,5.265-17.033C285.125,369.56,283.506,360.271,280.494,354.274z"/>
				<path style="opacity:0.3;fill:#A04773;" d="M278.611,378.821c-0.256,3.19-0.896,7.07-0.896,7.07s0.229,0.977,0.595,2.011
					C278.779,383.253,278.611,378.821,278.611,378.821z"/>
				<path style="opacity:0.3;fill:#A04773;" d="M221.389,378.821c0.257,3.19,0.896,7.07,0.896,7.07s-0.229,0.977-0.595,2.011
					C221.221,383.253,221.389,378.821,221.389,378.821z"/>
				<path style="opacity:0.3;fill:#A04773;" d="M223.986,368.211c0,0-2.291,9.557,1.012,17.943c0.112-0.524,0.159-1.061,0.122-1.6
					c-0.093-1.338-0.229-3.528-0.307-5.852C224.136,375.8,223.716,372.202,223.986,368.211z"/>
				<path style="opacity:0.3;fill:#FAFAFA;" d="M223.488,351.488c6.271-7.074,17.804-11.147,26.512-11.147
					c13.416,0,19.095,5.932,19.095,5.932c4.298-1.063,8.915,4.216,11.399,9.16c2.911,5.797,4.517,14.654,4.621,18.578
					c0.006-0.252,0.01-0.504,0.01-0.756c0-3.696-1.62-12.985-4.632-18.982c-2.483-4.944-7.1-10.223-11.399-9.16
					c0,0-5.678-5.932-19.095-5.932c-8.708,0-20.241,4.074-26.512,11.147c-7.33,8.268-8.613,19.231-8.613,22.927
					c0,0.236,0.004,0.471,0.009,0.707C214.98,369.904,216.425,359.455,223.488,351.488z"/>
				<path style="opacity:0.3;fill:#A04773;" d="M269.095,345.113c0,0,1.719,8.868,0,18.551c0,0,1.789-4.13,1.821-9.875
					C270.948,348.021,269.095,345.113,269.095,345.113z"/>
			</g>
		</g>
	</g>
	<g>
		<path style="fill:#C8C8C8;" d="M448.554,327.953H334.91c-3.843,0-6.958,3.115-6.958,6.958v113.643
			c0,3.843,3.115,6.958,6.958,6.958h113.643c3.843,0,6.958-3.115,6.958-6.958V334.91
			C455.512,331.068,452.397,327.953,448.554,327.953z"/>
		<g>
			<defs>
				<path id="SVGID_00000044151149037972963120000016909690792147818399_" d="M448.554,327.953H334.91
					c-3.843,0-6.958,3.115-6.958,6.958v113.643c0,3.843,3.115,6.958,6.958,6.958h113.643c3.843,0,6.958-3.115,6.958-6.958V334.91
					C455.512,331.068,452.397,327.953,448.554,327.953z"/>
			</defs>
			<clipPath id="SVGID_00000027591888097292094030000000780310441844836264_">
				<use xlink:href="#SVGID_00000044151149037972963120000016909690792147818399_"  style="overflow:visible;"/>
			</clipPath>
			<g style="clip-path:url(#SVGID_00000027591888097292094030000000780310441844836264_);">
				<path style="fill:#60A8A4;" d="M401.008,345.905c8.868-1.9,15.195-0.026,20.767,13.37c3.19,7.669,6.832,12.313,12.08,16.424
					c5.633,4.411,1.029,10.937-2.24,14.386c-2.511,2.649-2.443,4.821-0.543,7.06c1.616,1.904,1.493,5.769-5.226,7.397
					c-6.144,1.489-7.776,4.683-6.399,8.416c0,0-5.206,0.272-7.242-4.276c0,0,0.174,3.466-3.122,6.38
					c-6.922,6.119-17.351,0.505-17.351,0.505h0c0,0-10.429,5.613-17.351-0.505c-3.296-2.913-3.122-6.38-3.122-6.38
					c-2.036,4.547-7.242,4.276-7.242,4.276c1.377-3.733-0.255-6.926-6.399-8.416c-6.719-1.629-6.842-5.493-5.226-7.397
					c1.9-2.24,1.968-4.411-0.543-7.06c-3.269-3.448-7.873-9.974-2.24-14.386c5.249-4.111,8.891-8.755,12.08-16.424
					c5.572-13.396,15.993-18.008,25.404-18.008C396.505,341.266,401.008,345.905,401.008,345.905z"/>
				<path style="fill:#FAFAFA;" d="M428.716,466.699l-2.191-17.579c-0.793-6.365-5.025-11.778-11.012-14.082l-12.259-4.719
					c-1.343-0.517-2.229-1.807-2.229-3.247v-16.614h-18.587v16.614c0,1.439-0.886,2.73-2.229,3.247l-12.259,4.719
					c-5.986,2.305-10.219,7.717-11.012,14.082l-2.191,17.579H428.716z"/>
				<path style="fill:#A9DBD8;" d="M416.164,434.87c-4.135,4.224-12.546,10.899-24.431,10.899c-11.885,0-20.297-6.675-24.431-10.899
					c-5.869,2.467-9.978,7.854-10.768,14.2l-2.248,18.038h74.893l-2.248-18.038C426.14,442.724,422.032,437.337,416.164,434.87z"/>
				<path style="opacity:0.4;fill:#E1E1E1;" d="M382.439,421.789c2.938,1.044,6.104,1.684,9.294,1.684
					c3.189,0,6.355-0.639,9.293-1.684v-11.331h-18.587V421.789z"/>
				<path style="fill:#FAFAFA;" d="M366.951,401.319v-11.234c-1.388-2.838-4.963-3.761-6.863-1.104
					C357.277,392.911,362.486,401.319,366.951,401.319z"/>
				<path style="fill:#FAFAFA;" d="M416.515,401.319v-11.234c1.388-2.838,4.962-3.761,6.863-1.104
					C426.188,392.911,420.98,401.319,416.515,401.319z"/>
				<path style="opacity:0.4;fill:#E1E1E1;" d="M366.951,401.319v-11.234c-1.388-2.838-4.963-3.761-6.863-1.104
					C357.277,392.911,362.486,401.319,366.951,401.319z"/>
				<path style="opacity:0.4;fill:#E1E1E1;" d="M416.515,401.319v-11.234c1.388-2.838,4.962-3.761,6.863-1.104
					C426.188,392.911,420.98,401.319,416.515,401.319z"/>
				<path style="fill:#FAFAFA;" d="M391.733,419.993c9.113,0,18.072-5.141,21.89-10.399c3.595-4.951,3.848-8.401,5.685-31.49
					c1.519-19.079-9.35-27.98-27.575-27.98s-29.094,8.901-27.575,27.98c1.838,23.089,2.09,26.539,5.685,31.49
					C373.661,414.853,382.62,419.993,391.733,419.993z"/>
				<path style="fill:#60A8A4;" d="M391.733,348.269c-13.076,0-24.235,4.762-27.716,16.028c-3.481,11.266,1.12,25.788,1.12,25.788
					s3.536-5.156,3.536-16.286c0,0-1.508-18.596,23.059-18.596c24.568,0,23.06,18.596,23.06,18.596
					c0,11.13,3.536,16.286,3.536,16.286s4.601-14.522,1.12-25.788C415.969,353.031,404.809,348.269,391.733,348.269"/>
				<path style="fill:#60A8A4;" d="M414.922,364.365c5.83,7.669-0.295,18.731-0.295,18.731c0.214-7.107-4.389-9.366-7.285-18.731
					c0,10.837,2.896,18.731,2.896,18.731c-6.923,0-11.899-9.954-11.549-18.731c-0.95,2.353-6.711,4.886-8.611,10.416
					c-1.9,5.531,1.655,8.315,1.655,8.315c-6.063,0-9.139-3.665-9.094-9.332c-1.538,5.192-0.199,9.332-0.199,9.332
					c-5.493-4.706-2.968-11.402,0-18.664c-4.498,7.058-7.359,7.663-10.569,12.42c-2.534,3.755-1.833,6.244-1.833,6.244
					c-5.701-4.345-4.91-14.863-1.449-18.392c0,0,3.688-11.56,23.144-11.56C411.188,353.144,414.922,364.365,414.922,364.365z"/>
				<path style="opacity:0.3;fill:#60A8A4;" d="M414.922,364.365c4.451,5.856,1.934,13.685,0.495,17.062
					c0.173,1,0.369,1.911,0.58,2.733c1.302-2.158,3.051-5.88,2.974-10.226C418.851,367.199,414.922,364.365,414.922,364.365z"/>
				<path style="opacity:0.3;fill:#60A8A4;" d="M368.114,381.073c-3.515-4.988-2.529-13.307,0.474-16.369
					c0,0-4.003,3.687-3.709,11.538c0.146,3.893,1.401,6.301,2.636,7.747C367.735,383.113,367.94,382.146,368.114,381.073z"/>
				<path style="opacity:0.3;fill:#FAFAFA;" d="M349.609,376.858c5.249-4.11,8.891-8.755,12.08-16.424
					c5.572-13.396,15.993-18.008,25.404-18.008c9.411,0,13.914,4.638,13.914,4.638c8.868-1.9,15.195-0.026,20.767,13.37
					c3.19,7.669,6.831,12.313,12.08,16.424c1.718,1.346,2.48,2.888,2.622,4.48c0.174-1.995-0.489-3.969-2.622-5.639
					c-5.249-4.111-8.891-8.755-12.08-16.424c-5.572-13.396-11.899-15.27-20.767-13.37c0,0-4.503-4.638-13.914-4.638
					c-9.411,0-19.833,4.613-25.404,18.008c-3.19,7.669-6.832,12.313-12.08,16.424c-2.133,1.671-2.796,3.644-2.622,5.639
					C347.129,379.746,347.891,378.204,349.609,376.858z"/>
				<path style="opacity:0.3;fill:#60A8A4;" d="M402.731,345.581c-0.564,0.09-1.138,0.198-1.723,0.323l0,0l0,0
					c0,0,0.108,3.29-0.75,8.082C400.258,353.987,401.802,350.057,402.731,345.581z"/>
			</g>
		</g>
	</g>
	<g>
		<path style="fill:#C8C8C8;" d="M448.554,186.221H334.91c-3.843,0-6.958,3.115-6.958,6.958v113.644
			c0,3.843,3.115,6.958,6.958,6.958h113.643c3.843,0,6.958-3.115,6.958-6.958V193.178
			C455.512,189.336,452.397,186.221,448.554,186.221z"/>
		<g>
			<defs>
				<path id="SVGID_00000040554717736308797290000012370958212406077876_" d="M448.554,186.221H334.91
					c-3.843,0-6.958,3.115-6.958,6.958v113.644c0,3.843,3.115,6.958,6.958,6.958h113.643c3.843,0,6.958-3.115,6.958-6.958V193.178
					C455.512,189.336,452.397,186.221,448.554,186.221z"/>
			</defs>
			<clipPath id="SVGID_00000178193141315711249200000003300689286761035405_">
				<use xlink:href="#SVGID_00000040554717736308797290000012370958212406077876_"  style="overflow:visible;"/>
			</clipPath>
			<g style="clip-path:url(#SVGID_00000178193141315711249200000003300689286761035405_);">
				<path style="fill:#A04773;" d="M416.161,257.547c1.464,1.107,3.939,1.432,5.009,0c1.07-1.432,0.748-4.214,1.605-4.948
					c0.858-0.734,3.278,0.365,4.75-1.413c1.472-1.778-0.936-4.186,0-5.293c0.937-1.107,5.106,1.584,6.712,0
					c1.605-1.584,1.338-4.102,0-4.275c-1.338-0.174-0.624-4.21-2.765-4.601c-2.141-0.391-3.791-1.172-3.479-2.517
					s2.631-2.04,4.237-1.563c1.605,0.478,3.523-0.13,3.568-2.17c0.045-2.04-0.892-3.689-2.497-3.212
					c-1.605,0.477-3.434-0.651-3.479-1.476c-0.045-0.825,3.88-1.346,2.72-4.036c-1.16-2.691-2.854-1.215-3.479-2.257
					c-0.624-1.042,2.854-3.993,0.045-6.684c-2.81-2.691-5.485-0.13-6.288-1.215c-0.803-1.085-0.134-2.517,1.115-2.821
					c1.249-0.304,1.115-3.038-0.58-3.906c-1.695-0.868-4.281,0.651-4.594,1.953c-0.312,1.302-3.331-1.084-1.962-2.821
					c0.803-1.019,3.887-1.172,2.943-3.776c-0.944-2.604-3.345-4.774-5.039-3.255c-1.695,1.519-4.148,2.17-4.95,1.302
					c-0.803-0.868,2.72-3.255,0-5.122c-2.72-1.866-3.835,0.26-4.727,0c-0.892-0.26,0.268-3.516-2.631-3.603
					c-2.899-0.087-1.962,2.821-4.237,3.603c-1.579,0.542-2.056-4.514-6.424-4.514c-4.368,0-4.846,5.056-6.424,4.514
					c-2.275-0.781-1.338-3.689-4.237-3.603c-2.899,0.087-1.739,3.342-2.631,3.603c-0.892,0.26-2.007-1.866-4.727,0
					c-2.72,1.866,0.803,4.254,0,5.122c-0.803,0.868-3.256,0.217-4.95-1.302c-1.695-1.519-4.096,0.651-5.039,3.255
					c-0.944,2.604,2.141,2.757,2.943,3.776c1.369,1.738-1.65,4.123-1.962,2.821c-0.312-1.302-2.899-2.821-4.594-1.953
					c-1.695,0.868-1.828,3.603-0.58,3.906c1.249,0.304,1.918,1.736,1.115,2.821c-0.803,1.085-3.479-1.476-6.288,1.215
					c-2.81,2.691,0.669,5.643,0.045,6.684c-0.624,1.042-2.319-0.434-3.478,2.257c-1.16,2.691,2.765,3.212,2.72,4.036
					c-0.045,0.825-1.873,1.953-3.479,1.476c-1.605-0.478-2.542,1.172-2.497,3.212c0.045,2.04,1.962,2.648,3.568,2.17
					c1.605-0.477,3.925,0.217,4.237,1.563s-1.338,2.127-3.479,2.517c-2.141,0.391-1.427,4.427-2.765,4.601
					c-1.338,0.174-1.605,2.691,0,4.275c1.605,1.584,5.775-1.107,6.712,0c0.937,1.107-1.472,3.516,0,5.293
					c1.472,1.777,3.892,0.679,4.75,1.413c0.858,0.734,0.535,3.516,1.605,4.948c1.07,1.432,3.545,1.107,5.009,0H416.161z"/>
				<path style="fill:#FAFAFA;" d="M432.195,324.966l-2.168-17.397c-0.805-6.461-5.151-11.931-11.263-14.176l-13.14-4.827
					c-1.369-0.503-2.279-1.807-2.279-3.266v-16.575H380.12V285.3c0,1.459-0.91,2.763-2.279,3.266l-13.14,4.827
					c-6.112,2.245-10.458,7.716-11.263,14.176l-2.168,17.397H432.195z"/>
				<path style="opacity:0.2;fill:#E1E1E1;" d="M432.195,324.966l-2.168-17.397c-0.805-6.461-5.151-11.931-11.263-14.176
					l-13.14-4.827c-1.369-0.503-2.279-1.807-2.279-3.266v-16.575H380.12V285.3c0,1.459-0.91,2.763-2.279,3.266l-13.14,4.827
					c-6.112,2.245-10.458,7.716-11.263,14.176l-2.168,17.397H432.195z"/>
				<path style="opacity:0.4;fill:#E1E1E1;" d="M380.12,279.133c3.55,1.589,7.565,2.606,11.613,2.606
					c4.048,0,8.062-1.017,11.612-2.606v-10.409H380.12V279.133z"/>
				<path style="fill:#D388AE;" d="M430.433,307.519c-0.827-6.642-5.244-12.202-11.527-14.511l-13.139-4.826
					c-0.017,0.01-9.081,5.194-14.034,8.267c-4.957-3.077-14.034-8.268-14.034-8.268l-13.14,4.827
					c-6.282,2.308-10.699,7.869-11.527,14.511l-2.225,17.857h81.851L430.433,307.519z"/>
				<path style="fill:#D388AE;" d="M391.734,295.289c0,0,5.318-5.32,11.614-9.99v-1.16c0,0,1.499,0,3.324-0.522
					c0.722-0.206,1.502-0.067,2.069,0.425c0.793,0.687,1.892,1.821,2.695,3.368c0,0,7.473,3.377,7.473,5.597l-0.94-0.345
					c0,0-8.535,6.835-15.794,7.412c-5.36,0.426-10.441-2.466-10.441-2.466s-5.08,2.892-10.44,2.466
					c-7.259-0.577-15.794-7.412-15.794-7.412l-0.94,0.345c0-2.219,7.473-5.597,7.473-5.597c0.803-1.547,1.902-2.681,2.695-3.368
					c0.568-0.491,1.348-0.631,2.069-0.425c1.824,0.522,3.324,0.522,3.324,0.522v1.16
					C386.417,289.97,391.734,295.289,391.734,295.289z"/>
				<path style="opacity:0.3;fill:#FAFAFA;" d="M391.734,295.289c0,0,5.318-5.32,11.614-9.99v-1.16c0,0,1.499,0,3.324-0.522
					c0.722-0.206,1.502-0.067,2.069,0.425c0.793,0.687,1.892,1.821,2.695,3.368c0,0,7.473,3.377,7.473,5.597l-0.94-0.345
					c0,0-8.535,6.835-15.794,7.412c-5.36,0.426-10.441-2.466-10.441-2.466s-5.08,2.892-10.44,2.466
					c-7.259-0.577-15.794-7.412-15.794-7.412l-0.94,0.345c0-2.219,7.473-5.597,7.473-5.597c0.803-1.547,1.902-2.681,2.695-3.368
					c0.568-0.491,1.348-0.631,2.069-0.425c1.824,0.522,3.324,0.522,3.324,0.522v1.16
					C386.417,289.97,391.734,295.289,391.734,295.289z"/>
				
					<path style="fill:none;stroke:#FAFAFA;stroke-width:1.2273;stroke-linecap:round;stroke-linejoin:round;stroke-miterlimit:10;" d="
					M389.415,296.449c-1.257,0-2.625,3.251-2.389,8.534c0.419,9.379-1.09,11.702-1.09,14.659"/>
				
					<path style="fill:none;stroke:#FAFAFA;stroke-width:1.2273;stroke-linecap:round;stroke-linejoin:round;stroke-miterlimit:10;" d="
					M394.053,296.449c1.257,0,2.625,3.251,2.389,8.534c-0.419,9.379,1.09,11.702,1.09,14.659"/>
				<path style="fill:#FAFAFA;" d="M366.951,259.79v-11.234c-1.388-2.838-4.962-3.761-6.863-1.104
					C357.278,251.383,362.486,259.79,366.951,259.79z"/>
				<path style="fill:#FAFAFA;" d="M416.515,259.79v-11.234c1.388-2.838,4.962-3.761,6.863-1.104
					C426.189,251.383,420.98,259.79,416.515,259.79z"/>
				<path style="opacity:0.4;fill:#E1E1E1;" d="M366.951,259.79v-11.234c-1.388-2.838-4.962-3.761-6.863-1.104
					C357.278,251.383,362.486,259.79,366.951,259.79z"/>
				<path style="opacity:0.4;fill:#E1E1E1;" d="M416.515,259.79v-11.234c1.388-2.838,4.962-3.761,6.863-1.104
					C426.189,251.383,420.98,259.79,416.515,259.79z"/>
				<path style="fill:#FAFAFA;" d="M391.733,278.465c9.113,0,18.072-5.141,21.89-10.399c3.595-4.951,3.847-8.401,5.685-31.489
					c1.519-19.079-9.35-27.98-27.575-27.98s-29.094,8.901-27.575,27.98c1.838,23.088,2.09,26.538,5.685,31.489
					C373.662,273.324,382.62,278.465,391.733,278.465z"/>
				<path style="opacity:0.2;fill:#E1E1E1;" d="M391.733,278.465c9.113,0,18.072-5.141,21.89-10.399
					c3.595-4.951,3.847-8.401,5.685-31.489c1.519-19.079-9.35-27.98-27.575-27.98s-29.094,8.901-27.575,27.98
					c1.838,23.088,2.09,26.538,5.685,31.489C373.662,273.324,382.62,278.465,391.733,278.465z"/>
				<path style="fill:#A04773;" d="M391.733,206.661c9.024,0,23.417,2.715,27.716,14.931c4.298,12.212-1.12,26.964-1.12,26.964
					s-1.009-0.143-1.624-0.88c-1.057-1.267,0.074-2.149-0.763-3.518c-0.442-0.723,0.7-2.492,0.755-3.224
					c0.172-2.285-1.06-2.663-1.389-3.62c-0.498-1.448,0.588-2.353,1.207-3.348c0.619-0.995-0.742-5.686-1.524-6.945
					c-1.334-2.149-3.008-2.307-4.931-2.036c-1.478,0.209-1.742-3.552-4.208-3.552c-1.131,0-2.217-2.172-2.534-3.371
					c-0.317-1.199-3.665-1.47-4.751-0.701c-1.086,0.769-3.393,1.403-6.834,1.403c-3.441,0-5.748-0.633-6.834-1.403
					c-1.086-0.769-4.434-0.498-4.751,0.701c-0.317,1.199-1.403,3.371-2.534,3.371c-2.466,0-2.73,3.76-4.208,3.552
					c-1.923-0.271-3.597-0.113-4.931,2.036c-0.782,1.259-2.143,5.95-1.524,6.945c0.619,0.995,1.705,1.9,1.207,3.348
					c-0.329,0.957-1.561,1.335-1.389,3.62c0.055,0.732,1.198,2.501,0.755,3.224c-0.837,1.369,0.294,2.251-0.763,3.518
					c-0.615,0.737-1.624,0.88-1.624,0.88s-5.418-14.751-1.12-26.964C368.317,209.376,382.709,206.661,391.733,206.661z"/>
				<g style="opacity:0.3;">
					<path style="fill:#FAFAFA;" d="M418.761,207.111c-0.22,0.917-1.778,0.002-2.204-1.225c-0.643,1.667,1.918,3.581,2.204,2.385
						c0.312-1.302,2.899-2.821,4.594-1.953c0.744,0.381,1.187,1.122,1.344,1.859c0.241-0.965-0.188-2.426-1.344-3.018
						C421.66,204.29,419.074,205.809,418.761,207.111z"/>
					<path style="fill:#FAFAFA;" d="M429.17,219.924c-0.17,0.426-0.253,0.777-0.107,1.021c0.624,1.042,2.319-0.434,3.479,2.257
						c0.05,0.117,0.079,0.224,0.111,0.333c0.144-0.41,0.146-0.896-0.111-1.492C431.442,219.49,429.863,220.682,429.17,219.924z"/>
					<path style="fill:#FAFAFA;" d="M422.82,211.886c-0.106-0.143-0.183-0.293-0.24-0.445c-0.181,0.51-0.138,1.095,0.24,1.605
						c0.803,1.085,3.479-1.476,6.288,1.215c0.644,0.617,0.947,1.247,1.056,1.865c0.167-0.968-0.001-2.015-1.056-3.024
						C426.298,210.41,423.623,212.971,422.82,211.886z"/>
					<path style="fill:#FAFAFA;" d="M409.882,198.649c-0.23,0.449-0.358,0.823-0.129,1.072c0.803,0.868,3.256,0.217,4.95-1.302
						c1.695-1.519,4.096,0.651,5.039,3.255c0.037,0.101,0.056,0.192,0.081,0.286c0.133-0.38,0.136-0.846-0.081-1.445
						c-0.943-2.604-3.345-4.774-5.039-3.255C413.081,198.712,410.782,199.355,409.882,198.649z"/>
					<path style="fill:#FAFAFA;" d="M350.924,223.202c1.16-2.691,2.854-1.215,3.479-2.257c0.146-0.244,0.064-0.596-0.107-1.021
						c-0.693,0.758-2.272-0.433-3.372,2.119c-0.257,0.597-0.255,1.082-0.111,1.492C350.845,223.426,350.874,223.318,350.924,223.202
						z"/>
					<path style="fill:#FAFAFA;" d="M363.724,201.673c0.944-2.604,3.345-4.774,5.039-3.255c1.695,1.519,4.148,2.17,4.95,1.302
						c0.229-0.248,0.102-0.623-0.129-1.072c-0.9,0.707-3.2,0.064-4.822-1.39c-1.695-1.519-4.096,0.651-5.039,3.255
						c-0.217,0.6-0.214,1.065-0.081,1.445C363.667,201.865,363.687,201.775,363.724,201.673z"/>
					<path style="fill:#FAFAFA;" d="M373.714,194.599c2.721-1.866,3.835,0.26,4.727,0c0.892-0.26-0.268-3.516,2.631-3.603
						c2.899-0.087,1.962,2.821,4.237,3.603c1.579,0.542,2.056-4.514,6.424-4.514c4.368,0,4.845,5.056,6.424,4.514
						c2.275-0.781,1.338-3.689,4.237-3.603c2.899,0.087,1.739,3.342,2.631,3.603c0.892,0.26,2.007-1.866,4.727,0
						c0.535,0.367,0.822,0.754,0.955,1.145c0.214-0.767,0.109-1.576-0.955-2.305c-2.72-1.866-3.835,0.26-4.727,0
						c-0.892-0.26,0.268-3.516-2.631-3.603c-2.899-0.087-1.962,2.821-4.237,3.603c-1.579,0.542-2.056-4.514-6.424-4.514
						c-4.368,0-4.846,5.056-6.424,4.514c-2.275-0.781-1.338-3.689-4.237-3.603c-2.899,0.087-1.739,3.342-2.631,3.603
						c-0.892,0.26-2.007-1.866-4.727,0c-1.064,0.73-1.168,1.538-0.955,2.305C372.891,195.352,373.179,194.965,373.714,194.599z"/>
					<path style="fill:#FAFAFA;" d="M360.112,206.318c1.695-0.868,4.281,0.651,4.594,1.953c0.287,1.196,2.847-0.718,2.204-2.385
						c-0.426,1.228-1.984,2.143-2.204,1.225c-0.312-1.302-2.899-2.821-4.594-1.953c-1.157,0.592-1.585,2.053-1.344,3.018
						C358.925,207.439,359.367,206.699,360.112,206.318z"/>
					<path style="fill:#FAFAFA;" d="M354.359,214.261c2.81-2.691,5.485-0.13,6.288-1.215c0.378-0.51,0.42-1.094,0.24-1.605
						c-0.057,0.152-0.134,0.302-0.24,0.445c-0.803,1.085-3.478-1.476-6.288,1.215c-1.054,1.01-1.223,2.056-1.056,3.024
						C353.411,215.507,353.715,214.877,354.359,214.261z"/>
				</g>
			</g>
		</g>
	</g>
</g>
</svg>
